HIERARCHY
ROOT joint_Root
{
	OFFSET 0.0 0.0 0.0
	CHANNELS 6 Xposition Yposition Zposition Zrotation Xrotation Yrotation 
	JOINT Hips
	{
		OFFSET -0.726466 93.3139 -2.00062
		CHANNELS 6 Xposition Yposition Zposition Zrotation Xrotation Yrotation 
		JOINT Spine
		{
			OFFSET 15.7357 0.0 0.0
			CHANNELS 6 Xposition Yposition Zposition Zrotation Xrotation Yrotation 
			JOINT Chest
			{
				OFFSET 8.98455 -0.406207 0.0
				CHANNELS 6 Xposition Yposition Zposition Zrotation Xrotation Yrotation 
				JOINT Neck
				{
					OFFSET 16.3773 0.0 0.0
					CHANNELS 6 Xposition Yposition Zposition Zrotation Xrotation Yrotation 
					JOINT Head
					{
						OFFSET 6.45672 0.0 0.0
						CHANNELS 6 Xposition Yposition Zposition Zrotation Xrotation Yrotation 
						End Site
						{
							OFFSET 0.0 0.0 0.0
						}
					}
				}
				JOINT Shoulder_L
				{
					OFFSET 12.9942 -0.242716 4.98039
					CHANNELS 6 Xposition Yposition Zposition Zrotation Xrotation Yrotation 
					JOINT UpperArm_L
					{
						OFFSET 5.34809 0.0 0.0
						CHANNELS 6 Xposition Yposition Zposition Zrotation Xrotation Yrotation 
						JOINT LowerArm_L
						{
							OFFSET 24.3286 1.87007e-05 0.0
							CHANNELS 6 Xposition Yposition Zposition Zrotation Xrotation Yrotation 
							JOINT Hand_L
							{
								OFFSET 22.2916 0.0 0.0
								CHANNELS 6 Xposition Yposition Zposition Zrotation Xrotation Yrotation 
								End Site
								{
									OFFSET 0.0 0.0 0.0
								}
							}
						}
					}
				}
				JOINT Shoulder_R
				{
					OFFSET 12.9945 -0.242716 -4.98039
					CHANNELS 6 Xposition Yposition Zposition Zrotation Xrotation Yrotation 
					JOINT UpperArm_R
					{
						OFFSET -5.34813 0.0 0.0
						CHANNELS 6 Xposition Yposition Zposition Zrotation Xrotation Yrotation 
						JOINT LowerArm_R
						{
							OFFSET -24.3289 0.000322201 0.0
							CHANNELS 6 Xposition Yposition Zposition Zrotation Xrotation Yrotation 
							JOINT Hand_R
							{
								OFFSET -22.2915 -0.000108084 0.0
								CHANNELS 6 Xposition Yposition Zposition Zrotation Xrotation Yrotation 
								End Site
								{
									OFFSET 0.0 0.0 0.0
								}
							}
						}
					}
				}
			}
		}
		JOINT UpperLeg_L
		{
			OFFSET -2.19248 -6.46944 0.0
			CHANNELS 6 Xposition Yposition Zposition Zrotation Xrotation Yrotation 
			JOINT LowerLeg_L
			{
				OFFSET 39.0811 0.0 -1.23785e-05
				CHANNELS 6 Xposition Yposition Zposition Zrotation Xrotation Yrotation 
				JOINT Foot_L
				{
					OFFSET 40.9854 0.0 -1.26872e-05
					CHANNELS 6 Xposition Yposition Zposition Zrotation Xrotation Yrotation 
					JOINT Toes_L
					{
						OFFSET 11.7543 0.0 0.0
						CHANNELS 6 Xposition Yposition Zposition Zrotation Xrotation Yrotation 
						End Site
						{
							OFFSET 0.0 0.0 0.0
						}
					}
				}
			}
		}
		JOINT UpperLeg_R
		{
			OFFSET -2.19251 6.46944 0.0
			CHANNELS 6 Xposition Yposition Zposition Zrotation Xrotation Yrotation 
			JOINT LowerLeg_R
			{
				OFFSET -39.0811 -0.00228153 -0.0401928
				CHANNELS 6 Xposition Yposition Zposition Zrotation Xrotation Yrotation 
				JOINT Foot_R
				{
					OFFSET -40.9854 0.0 0.0
					CHANNELS 6 Xposition Yposition Zposition Zrotation Xrotation Yrotation 
					JOINT Toes_R
					{
						OFFSET -11.7543 0.0 0.0
						CHANNELS 6 Xposition Yposition Zposition Zrotation Xrotation Yrotation 
						End Site
						{
							OFFSET 0.0 0.0 0.0
						}
					}
				}
			}
		}
	}
}
MOTION
Frames:	6
Frame Time:	0.0333333
0.000000 0.000000 0.000000 0.000000 0.000000 -0.000000 -1.385340 92.359300 -2.346570 87.250800 -3.616000 0.752169 15.735700 0.000005 -0.000001 85.295000 86.068000 -84.483700 8.984550 -0.406207 -0.000000 0.077012 -0.699309 1.622090 16.377300 -0.000001 -0.000001 -0.401973 -1.881250 0.244483 6.456720 -0.000001 -0.000000 -2.798260 -0.941968 -4.217700 12.994200 -0.242716 4.980390 -89.770000 -0.637684 -70.168300 5.348090 -0.000007 -0.000001 -67.334900 36.246000 -14.663000 24.328600 0.000019 0.000005 2.513830 5.604380 -24.206000 22.291600 -0.000001 0.000005 7.668660 5.572630 -9.823360 12.994500 -0.242716 -4.980390 88.319700 4.388730 -69.025400 -5.348130 -0.000001 -0.000004 -58.555900 39.244200 -14.020000 -24.328900 0.000322 -0.000009 2.273290 3.166860 -35.709800 -22.291500 -0.000108 -0.000004 11.400500 5.589130 -10.716300 -2.192480 -6.469440 -0.000000 -169.212000 -16.012600 -3.997970 39.081100 -0.000007 -0.000012 -0.152152 0.426130 19.649500 40.985400 -0.000006 -0.000013 -6.289130 1.843010 -62.915300 11.754300 -0.000000 0.000003 -0.000029 -0.000356 -16.591400 -2.192510 6.469440 -0.000001 176.645000 19.382500 176.576000 -39.081100 -0.002282 -0.040193 -0.018059 0.067186 17.655500 -40.985400 0.000008 0.000006 -1.660210 4.267270 -61.998500 -11.754300 -0.000006 -0.000006 -0.006184 -0.072501 -19.523900
0.000000 0.000000 0.000000 0.000000 0.000000 -0.000000 -1.382330 92.359600 -2.379500 87.252500 -3.600170 0.789911 15.735700 0.000005 -0.000001 84.741400 86.037600 -83.894800 8.984550 -0.406207 -0.000000 0.131812 -0.782502 1.692870 16.377300 -0.000001 -0.000001 -0.482301 -1.873590 0.360943 6.456720 -0.000001 -0.000000 -2.960540 -0.909868 -3.796410 12.994200 -0.242716 4.980390 -89.761300 -0.660139 -70.120400 5.348090 -0.000007 -0.000001 -65.973300 36.088300 -15.916000 24.328600 0.000019 0.000005 2.581540 5.695310 -24.433300 22.291600 -0.000001 0.000005 7.620050 5.575860 -9.991950 12.994500 -0.242716 -4.980390 88.454200 4.007730 -68.887800 -5.348130 -0.000001 -0.000004 -56.893200 42.423600 -13.130500 -24.328900 0.000322 -0.000009 3.266870 3.779280 -40.896000 -22.291500 -0.000108 -0.000004 9.742930 5.598810 -11.275100 -2.192480 -6.469440 -0.000000 -169.216000 -15.968700 -3.994810 39.081100 -0.000007 -0.000012 -0.151582 0.424070 19.669400 40.985400 -0.000006 -0.000013 -6.281280 1.835560 -62.908800 11.754300 -0.000000 0.000003 -0.000029 -0.000346 -16.591100 -2.192510 6.469440 -0.000001 176.638000 19.391200 176.585000 -39.081100 -0.002282 -0.040193 -0.016636 0.062658 17.670700 -40.985400 0.000008 0.000006 -1.669750 4.276330 -61.984100 -11.754300 -0.000006 -0.000006 -0.006309 -0.073620 -19.569600
0.000000 0.000000 0.000000 0.000000 0.000000 -0.000000 -1.378760 92.356000 -2.403100 87.289400 -3.520540 0.889420 15.735700 0.000005 -0.000001 84.280800 85.987100 -83.401100 8.984550 -0.406207 -0.000000 0.227032 -0.857419 1.760010 16.377300 -0.000001 -0.000001 -0.499719 -1.908470 0.535956 6.456720 -0.000001 -0.000000 -3.199530 -0.870713 -3.372190 12.994200 -0.242716 4.980390 -89.776300 -0.618027 -70.101200 5.348090 -0.000007 -0.000001 -63.747300 35.514400 -17.877700 24.328600 0.000019 0.000005 2.905800 6.183130 -25.232600 22.291600 -0.000001 0.000005 7.014610 5.572750 -9.829890 12.994500 -0.242716 -4.980390 88.633100 3.515850 -68.739700 -5.348130 -0.000001 -0.000004 -55.291300 45.240200 -11.925600 -24.328900 0.000322 -0.000009 4.476600 4.230830 -46.704300 -22.291500 -0.000108 -0.000004 7.044330 5.609510 -11.936900 -2.192480 -6.469440 -0.000000 -169.227000 -15.895800 -3.937260 39.081100 -0.000007 -0.000012 -0.152398 0.426165 19.677400 40.985400 -0.000006 -0.000013 -6.277430 1.863010 -62.887400 11.754300 -0.000000 0.000003 -0.000027 -0.000324 -16.590200 -2.192510 6.469440 -0.000001 176.566000 19.377300 176.657000 -39.081100 -0.002282 -0.040193 -0.018233 0.067427 17.730400 -40.985400 0.000008 0.000006 -1.708800 4.221640 -62.010000 -11.754300 -0.000006 -0.000006 -0.006263 -0.073202 -19.552500
0.000000 0.000000 0.000000 0.000000 0.000000 -0.000000 -1.388350 92.352400 -2.433950 87.272900 -3.275780 1.024430 15.735700 0.000005 -0.000001 83.463400 85.929300 -82.514800 8.984550 -0.406207 -0.000000 0.331474 -0.988057 1.898870 16.377300 -0.000001 -0.000001 -0.495852 -1.975710 0.658760 6.456720 -0.000001 -0.000000 -3.420900 -0.851859 -2.808000 12.994200 -0.242716 4.980390 -89.748900 -0.696864 -70.181600 5.348090 -0.000007 -0.000001 -61.108200 34.324100 -20.236800 24.328600 0.000019 0.000005 3.255290 6.556920 -26.476800 22.291600 -0.000001 0.000005 6.860160 5.574860 -9.939580 12.994500 -0.242716 -4.980390 88.848900 2.933470 -68.563000 -5.348130 -0.000001 -0.000004 -53.573700 47.905400 -10.526500 -24.328900 0.000322 -0.000009 5.534510 4.189790 -52.986400 -22.291500 -0.000108 -0.000004 3.723680 5.616910 -12.414800 -2.192480 -6.469440 -0.000000 -169.175000 -15.758600 -3.915010 39.081100 -0.000007 -0.000012 -0.153807 0.428515 19.744800 40.985400 -0.000006 -0.000013 -6.258110 1.980120 -62.867900 11.754300 -0.000000 0.000003 -0.000026 -0.000318 -16.590000 -2.192510 6.469440 -0.000001 176.569000 19.478000 176.768000 -39.081100 -0.002282 -0.040193 -0.015500 0.058612 17.806000 -40.985400 0.000008 0.000006 -1.593460 4.039980 -62.063900 -11.754300 -0.000006 -0.000006 -0.006237 -0.072976 -19.543300
0.000000 0.000000 0.000000 0.000000 0.000000 -0.000000 -1.410440 92.343400 -2.486910 87.332500 -2.961930 1.196190 15.735700 0.000005 -0.000001 82.442500 85.857700 -81.435100 8.984550 -0.406207 -0.000000 0.457801 -1.153500 2.018060 16.377300 -0.000001 -0.000001 -0.471538 -2.078810 0.776112 6.456720 -0.000001 -0.000000 -3.665800 -0.809928 -2.260800 12.994200 -0.242716 4.980390 -89.706800 -0.819640 -70.314500 5.348090 -0.000007 -0.000001 -58.106300 32.325700 -22.953100 24.328600 0.000019 0.000005 3.446040 6.453920 -28.178200 22.291600 -0.000001 0.000005 6.701520 5.572410 -9.811810 12.994500 -0.242716 -4.980390 89.056000 2.377290 -68.334800 -5.348130 -0.000001 -0.000004 -51.401900 50.718000 -9.373800 -24.328900 0.000322 -0.000009 7.057120 4.212820 -59.314200 -22.291500 -0.000108 -0.000004 1.204500 5.622510 -12.795300 -2.192480 -6.469440 -0.000000 -169.191000 -15.659800 -3.886440 39.081100 -0.000007 -0.000012 -0.153175 0.425313 19.806500 40.985400 -0.000006 -0.000013 -6.216320 2.200700 -62.815300 11.754300 -0.000000 0.000003 -0.000027 -0.000326 -16.590300 -2.192510 6.469440 -0.000001 176.464000 19.545000 176.879000 -39.081100 -0.002282 -0.040193 -0.018786 0.068271 17.945500 -40.985400 0.000008 0.000006 -1.656760 3.820990 -62.129900 -11.754300 -0.000006 -0.000006 -0.006090 -0.071648 -19.489100
0.000000 0.000000 0.000000 0.000000 0.000000 -0.000000 -1.434320 92.340000 -2.517980 87.370700 -2.586400 1.375530 15.735700 0.000005 -0.000001 80.970200 85.784300 -79.880300 8.984550 -0.406207 -0.000000 0.575403 -1.391230 2.185390 16.377300 -0.000001 -0.000001 -0.389137 -2.196740 0.961346 6.456720 -0.000001 -0.000000 -3.916000 -0.673082 -1.827750 12.994200 -0.242716 4.980390 -89.658700 -0.965391 -70.529400 5.348090 -0.000007 -0.000001 -55.199700 29.209200 -25.558300 24.328600 0.000019 0.000005 3.609080 6.165850 -30.423300 22.291600 -0.000001 0.000005 6.359810 5.571530 -9.766970 12.994500 -0.242716 -4.980390 89.273400 1.805690 -68.076500 -5.348130 -0.000001 -0.000004 -48.991500 53.410700 -8.511500 -24.328900 0.000322 -0.000009 9.258590 4.285890 -65.370300 -22.291500 -0.000108 -0.000004 -0.426030 5.627590 -13.159300 -2.192480 -6.469440 -0.000000 -169.184000 -15.444800 -3.840910 39.081100 -0.000007 -0.000012 -0.152501 0.422990 19.825900 40.985400 -0.000006 -0.000013 -6.187920 2.396950 -62.745600 11.754300 -0.000000 0.000003 -0.000026 -0.000316 -16.589900 -2.192510 6.469440 -0.000001 176.394000 19.731900 177.045000 -39.081100 -0.002282 -0.040193 -0.017281 0.063240 18.047500 -40.985400 0.000008 0.000006 -1.603720 3.612420 -62.208900 -11.754300 -0.000006 -0.000006 -0.006184 -0.072502 -19.524000
